# xmcd
#
# Track frame offsets: 
#        150
#        28272
#        66740
#        92350
#        120802
#        141730
#
# Disc length: 2162 seconds
#
# Revision: 3
# Processed by: cddbd v1.5.2PL0 Copyright (c) Steve Scherf et al.
# Submitted via: ExactAudioCopy v1.1
#
DISCID=54087006
DTITLE=B.B. King - There Must Be A Better World Somewhere
DYEAR=1981
DGENRE=Blues
TTITLE0=Life Ain't Nothing But A Party
TTITLE1=Born Again Human
TTITLE2=There Must Be A Better World Somewhere
TTITLE3=The Victim
TTITLE4=More, More, More
TTITLE5=You're Going With Me
EXTD=
EXTT0=
EXTT1=
EXTT2=
EXTT3=
EXTT4=
EXTT5=
PLAYORDER=
